<svg width="60" height="60" viewBox="0 0 50 50" fill="none" xmlns="http://www.w3.org/2000/svg">
<path d="M2.5 17.5H47.5M12.5 2.5V7.5M37.5 2.5V7.5M10 25H15M22.5 25H27.5M35 25H40M10 32.5H15M22.5 32.5H27.5M35 32.5H40M10 40H15M22.5 40H27.5M35 40H40M10.5 47.5H39.5C42.3002 47.5 43.7005 47.5 44.77 46.955C45.7108 46.4757 46.4757 45.7108 46.955 44.77C47.5 43.7005 47.5 42.3002 47.5 39.5V15.5C47.5 12.6997 47.5 11.2996 46.955 10.2301C46.4757 9.28923 45.7108 8.52432 44.77 8.04497C43.7005 7.5 42.3002 7.5 39.5 7.5H10.5C7.69975 7.5 6.2996 7.5 5.23005 8.04497C4.28923 8.52432 3.52432 9.28923 3.04497 10.2301C2.5 11.2996 2.5 12.6997 2.5 15.5V39.5C2.5 42.3002 2.5 43.7005 3.04497 44.77C3.52432 45.7108 4.28923 46.4757 5.23005 46.955C6.2996 47.5 7.69972 47.5 10.5 47.5Z" stroke="#2B2B2B" stroke-width="4.92" stroke-linecap="round"/>
</svg>
