<?xml version="1.0" standalone="no"?>
<!DOCTYPE svg PUBLIC "-//W3C//DTD SVG 20010904//EN"
 "http://www.w3.org/TR/2001/REC-SVG-20010904/DTD/svg10.dtd">
<svg version="1.0" xmlns="http://www.w3.org/2000/svg"
 width="512.000000pt" height="512.000000pt" viewBox="0 0 512.000000 512.000000"
 preserveAspectRatio="xMidYMid meet">

<g transform="translate(0.000000,512.000000) scale(0.100000,-0.100000)"
fill="#000000" stroke="none">
<path d="M2204 3982 c-72 -58 -53 -167 34 -192 24 -8 148 -10 363 -8 310 3
328 4 349 23 55 49 57 132 3 175 -25 19 -38 20 -377 20 -317 0 -353 -2 -372
-18z"/>
<path d="M1194 3576 c-38 -38 -44 -77 -19 -126 25 -49 60 -60 189 -60 l115 0
5 -42 c3 -24 40 -450 81 -948 41 -498 80 -932 86 -965 22 -124 104 -229 219
-284 l55 -26 650 0 650 0 67 33 c112 55 191 161 212 283 5 27 166 1913 166
1940 0 4 59 9 131 11 l131 3 29 33 c32 35 38 81 17 127 -26 58 50 55 -1409 55
l-1341 0 -34 -34z m1090 -557 c26 -22 36 -41 41 -72 3 -23 30 -321 60 -661 58
-673 58 -662 4 -700 -50 -35 -139 -12 -169 44 -9 17 -120 1228 -120 1310 0 96
111 144 184 79z m735 1 c16 -17 31 -43 33 -58 2 -15 -22 -318 -53 -674 -43
-490 -61 -652 -72 -668 -24 -35 -54 -51 -96 -52 -70 -1 -111 45 -111 125 0
102 109 1274 121 1300 17 36 53 56 106 57 33 0 47 -6 72 -30z"/>
</g>
</svg>
