<svg width="60" height="60" viewBox="0 0 60 60" fill="none" xmlns="http://www.w3.org/2000/svg">
<path fill-rule="evenodd" clip-rule="evenodd" d="M45 5C47.636 5 49.7954 7.03969 49.9863 9.62684L50 10V50C50 52.636 47.9604 54.7954 45.3732 54.9863L45 55H15C12.3641 55 10.2046 52.9604 10.0137 50.3732L10 50V47.5C8.6193 47.5 7.5 46.3807 7.5 45C7.5 43.7179 8.46511 42.6612 9.70845 42.5168L10 42.5V37.5C8.6193 37.5 7.5 36.3808 7.5 35C7.5 33.7179 8.46511 32.6612 9.70845 32.5168L10 32.5V27.5C8.6193 27.5 7.5 26.3808 7.5 25C7.5 23.7179 8.46511 22.6612 9.70845 22.5168L10 22.5V17.5C8.6193 17.5 7.5 16.3807 7.5 15C7.5 13.7179 8.46511 12.6612 9.70845 12.5168L10 12.5V10C10 7.36409 12.0397 5.20459 14.6268 5.01371L15 5H45ZM45 10H15V50H45V10ZM38.75 15C40.6992 15 42.3011 16.4872 42.4828 18.3888L42.5 18.75V23.75C42.5 25.6992 41.0127 27.3011 39.1111 27.4828L38.75 27.5H21.25C19.3008 27.5 17.6989 26.0127 17.5172 24.1111L17.5 23.75V18.75C17.5 16.8008 18.9872 15.1989 20.8888 15.0172L21.25 15H38.75ZM37.5 20H22.5V22.5H37.5V20Z" fill="#2B2B2B"/>
</svg>
