<svg width="60" height="60" viewBox="0 0 60 60" fill="none" xmlns="http://www.w3.org/2000/svg">
<g clip-path="url(#clip0_24_769)">
<path d="M58.9929 27.313L49.8996 18.2198V7.71547C49.8996 5.81615 48.3605 4.2769 46.4584 4.2769C44.5607 4.2769 43.0215 5.81615 43.0215 7.71547V11.3418L36.2509 4.57085C32.9034 1.22518 27.0832 1.23111 23.7433 4.57691L1.00671 27.313C-0.335487 28.6579 -0.335487 30.834 1.00671 32.1768C2.34951 33.5213 4.52981 33.5213 5.87213 32.1768L28.6066 9.44003C29.3472 8.70328 30.6526 8.70329 31.3893 9.43785L54.1276 32.1768C54.8019 32.8491 55.6809 33.1835 56.5597 33.1835C57.4404 33.1835 58.3209 32.8487 58.9931 32.1768C60.3357 30.8341 60.3357 28.658 58.9929 27.313Z" fill="#4E60A2" stroke="#4E60A2"/>
<path d="M31.1944 15.9673C30.5339 15.3071 29.4643 15.3071 28.8057 15.9673L8.80649 35.9605C8.49074 36.2761 8.31174 36.7071 8.31174 37.1568V51.7391C8.31174 55.161 11.0862 57.9353 14.508 57.9353H24.4096V42.601H35.5884V57.9353H45.4901C48.9117 57.9353 51.6862 55.161 51.6862 51.7392V37.1568C51.6862 36.7071 51.5088 36.2761 51.1914 35.9605L31.1944 15.9673Z" fill="#4E60A2" stroke="#4E60A2"/>
</g>
<defs>
<clipPath id="clip0_24_769">
<rect width="60" height="60" fill="white"/>
</clipPath>
</defs>
</svg>
