<svg width="60" height="60" viewBox="0 0 60 58" fill="none" xmlns="http://www.w3.org/2000/svg">
<path d="M58.9929 26.3131L49.8996 17.2198V6.7155C49.8996 4.81618 48.3605 3.27693 46.4583 3.27693C44.5606 3.27693 43.0215 4.81618 43.0215 6.7155V10.3418L36.2508 3.57088C32.9033 0.225207 27.0831 0.231141 23.7433 3.57694L1.00665 26.3131C-0.335548 27.6579 -0.335548 29.834 1.00665 31.1768C2.34944 32.5213 4.52975 32.5213 5.87207 31.1768L28.6065 8.44006C29.3471 7.70332 30.6525 7.70332 31.3892 8.43788L54.1276 31.1768C54.8018 31.8491 55.6809 32.1835 56.5597 32.1835C57.4403 32.1835 58.3208 31.8487 58.993 31.1768C60.3357 29.8341 60.3357 27.6581 58.9929 26.3131Z" fill="#2B2B2B" stroke="#2B2B2B"/>
<path d="M31.1943 14.9673C30.5338 14.3071 29.4642 14.3071 28.8056 14.9673L8.8064 34.9605C8.49065 35.2762 8.31165 35.7071 8.31165 36.1568V50.7391C8.31165 54.161 11.0861 56.9354 14.5079 56.9354H24.4095V41.601H35.5883V56.9354H45.49C48.9116 56.9354 51.6861 54.161 51.6861 50.7393V36.1568C51.6861 35.7071 51.5087 35.2762 51.1913 34.9605L31.1943 14.9673Z" fill="#2B2B2B" stroke="#2B2B2B"/>
</svg>
