<svg width="60" height="60" viewBox="0 0 56 46" fill="none" xmlns="http://www.w3.org/2000/svg">
<path d="M56.5657 27.5H25.3468L31.5421 21.775C31.7932 21.5419 31.9925 21.2652 32.1284 20.9606C32.2643 20.6561 32.3343 20.3296 32.3343 20C32.3343 19.6704 32.2643 19.3439 32.1284 19.0394C31.9925 18.7348 31.7932 18.4581 31.5421 18.225C31.2909 17.9919 30.9928 17.807 30.6647 17.6809C30.3365 17.5547 29.9848 17.4898 29.6296 17.4898C29.2745 17.4898 28.9228 17.5547 28.5946 17.6809C28.2665 17.807 27.9683 17.9919 27.7172 18.225L16.9428 28.225C16.6975 28.4628 16.5053 28.7431 16.3771 29.05C16.1077 29.6587 16.1077 30.3413 16.3771 30.95C16.5053 31.2569 16.6975 31.5372 16.9428 31.775L27.7172 41.775C27.9676 42.0093 28.2655 42.1953 28.5937 42.3222C28.922 42.4492 29.274 42.5145 29.6296 42.5145C29.9852 42.5145 30.3373 42.4492 30.6655 42.3222C30.9938 42.1953 31.2917 42.0093 31.5421 41.775C31.7946 41.5426 31.9949 41.2661 32.1317 40.9614C32.2684 40.6568 32.3389 40.33 32.3389 40C32.3389 39.67 32.2684 39.3432 32.1317 39.0386C31.9949 38.7339 31.7946 38.4574 31.5421 38.225L25.3468 32.5H56.5657C57.2801 32.5 57.9652 32.2366 58.4703 31.7678C58.9755 31.2989 59.2593 30.663 59.2593 30C59.2593 29.337 58.9755 28.7011 58.4703 28.2322C57.9652 27.7634 57.2801 27.5 56.5657 27.5ZM8.08081 7.5C7.36642 7.5 6.68129 7.76339 6.17614 8.23223C5.671 8.70107 5.38721 9.33696 5.38721 10V50C5.38721 50.663 5.671 51.2989 6.17614 51.7678C6.68129 52.2366 7.36642 52.5 8.08081 52.5C8.7952 52.5 9.48033 52.2366 9.98548 51.7678C10.4906 51.2989 10.7744 50.663 10.7744 50V10C10.7744 9.33696 10.4906 8.70107 9.98548 8.23223C9.48033 7.76339 8.7952 7.5 8.08081 7.5Z" fill="#4E60A2" stroke="#4E60A2"/>
</svg>
