<!-- <svg width="60" height="60" viewBox="0 0 56 46" fill="none" xmlns="http://www.w3.org/2000/svg">
<path d="M52.5657 20.5H21.3468L27.5421 14.775C27.7932 14.5419 27.9925 14.2652 28.1284 13.9606C28.2643 13.6561 28.3343 13.3296 28.3343 13C28.3343 12.6704 28.2643 12.3439 28.1284 12.0394C27.9925 11.7348 27.7932 11.4581 27.5421 11.225C27.2909 10.9919 26.9928 10.807 26.6646 10.6809C26.3365 10.5547 25.9848 10.4898 25.6296 10.4898C25.2745 10.4898 24.9228 10.5547 24.5946 10.6809C24.2665 10.807 23.9683 10.9919 23.7172 11.225L12.9428 21.225C12.6975 21.4628 12.5053 21.7431 12.3771 22.05C12.1077 22.6587 12.1077 23.3413 12.3771 23.95C12.5053 24.2569 12.6975 24.5372 12.9428 24.775L23.7172 34.775C23.9676 35.0093 24.2655 35.1953 24.5937 35.3222C24.922 35.4492 25.274 35.5145 25.6296 35.5145C25.9852 35.5145 26.3373 35.4492 26.6655 35.3222C26.9938 35.1953 27.2917 35.0093 27.5421 34.775C27.7946 34.5426 27.9949 34.2661 28.1317 33.9614C28.2684 33.6568 28.3389 33.33 28.3389 33C28.3389 32.67 28.2684 32.3432 28.1317 32.0386C27.9949 31.7339 27.7946 31.4574 27.5421 31.225L21.3468 25.5H52.5657C53.2801 25.5 53.9652 25.2366 54.4703 24.7678C54.9755 24.2989 55.2593 23.663 55.2593 23C55.2593 22.337 54.9755 21.7011 54.4703 21.2322C53.9652 20.7634 53.2801 20.5 52.5657 20.5ZM4.08081 0.5C3.36642 0.5 2.68129 0.763392 2.17614 1.23223C1.671 1.70107 1.38721 2.33696 1.38721 3V43C1.38721 43.663 1.671 44.2989 2.17614 44.7678C2.68129 45.2366 3.36642 45.5 4.08081 45.5C4.7952 45.5 5.48033 45.2366 5.98548 44.7678C6.49062 44.2989 6.77441 43.663 6.77441 43V3C6.77441 2.33696 6.49062 1.70107 5.98548 1.23223C5.48033 0.763392 4.7952 0.5 4.08081 0.5Z" fill="#2B2B2B" stroke="#B1B1B1"/>
</svg> -->

<svg width="60" height="60" viewBox="0 0 56 46" fill="none" xmlns="http://www.w3.org/2000/svg">
<path d="M51.5657 20.5H20.3468L26.5421 14.775C26.7932 14.5419 26.9925 14.2652 27.1284 13.9606C27.2643 13.6561 27.3343 13.3296 27.3343 13C27.3343 12.6704 27.2643 12.3439 27.1284 12.0394C26.9925 11.7348 26.7932 11.4581 26.5421 11.225C26.2909 10.9919 25.9928 10.807 25.6647 10.6809C25.3365 10.5547 24.9848 10.4898 24.6296 10.4898C24.2745 10.4898 23.9228 10.5547 23.5946 10.6809C23.2665 10.807 22.9683 10.9919 22.7172 11.225L11.9428 21.225C11.6975 21.4628 11.5053 21.7431 11.3771 22.05C11.1077 22.6587 11.1077 23.3413 11.3771 23.95C11.5053 24.2569 11.6975 24.5372 11.9428 24.775L22.7172 34.775C22.9676 35.0093 23.2655 35.1953 23.5937 35.3222C23.922 35.4492 24.274 35.5145 24.6296 35.5145C24.9852 35.5145 25.3373 35.4492 25.6655 35.3222C25.9938 35.1953 26.2917 35.0093 26.5421 34.775C26.7946 34.5426 26.9949 34.2661 27.1317 33.9614C27.2684 33.6568 27.3389 33.33 27.3389 33C27.3389 32.67 27.2684 32.3432 27.1317 32.0386C26.9949 31.7339 26.7946 31.4574 26.5421 31.225L20.3468 25.5H51.5657C52.2801 25.5 52.9652 25.2366 53.4703 24.7678C53.9755 24.2989 54.2593 23.663 54.2593 23C54.2593 22.337 53.9755 21.7011 53.4703 21.2322C52.9652 20.7634 52.2801 20.5 51.5657 20.5ZM3.08081 0.5C2.36642 0.5 1.68129 0.763392 1.17614 1.23223C0.670996 1.70107 0.387207 2.33696 0.387207 3V43C0.387207 43.663 0.670996 44.2989 1.17614 44.7678C1.68129 45.2366 2.36642 45.5 3.08081 45.5C3.7952 45.5 4.48033 45.2366 4.98548 44.7678C5.49062 44.2989 5.77441 43.663 5.77441 43V3C5.77441 2.33696 5.49062 1.70107 4.98548 1.23223C4.48033 0.763392 3.7952 0.5 3.08081 0.5Z" fill="#2B2B2B"/>
</svg>

