<?xml version="1.0" standalone="no"?>
<!DOCTYPE svg PUBLIC "-//W3C//DTD SVG 20010904//EN"
 "http://www.w3.org/TR/2001/REC-SVG-20010904/DTD/svg10.dtd">
<svg version="1.0" xmlns="http://www.w3.org/2000/svg"
 width="203.000000pt" height="248.000000pt" viewBox="0 0 203.000000 248.000000"
 preserveAspectRatio="xMidYMid meet">

<g transform="translate(0.000000,248.000000) scale(0.100000,-0.100000)"
fill="#000000" stroke="none">
<path d="M754 2466 c-17 -8 -40 -26 -52 -41 -21 -26 -22 -38 -22 -211 l0 -184
-277 0 c-254 0 -282 -2 -321 -20 -33 -15 -47 -29 -62 -62 -19 -41 -20 -72 -20
-853 l0 -810 143 -143 142 -142 807 0 c903 0 866 -3 910 69 l23 36 0 910 c0
897 0 911 -20 945 -35 60 -69 70 -237 70 l-148 0 0 65 0 64 -167 144 c-93 78
-179 150 -193 160 -21 15 -53 17 -250 17 -166 -1 -233 -4 -256 -14z m602 -228
l154 -132 0 -313 0 -313 -360 0 -360 0 0 438 c0 241 3 442 7 445 3 4 96 7 205
7 l200 0 154 -132z m-676 -572 c0 -205 1 -214 23 -247 39 -58 58 -60 467 -57
483 4 450 -19 450 308 l0 210 107 0 c85 0 110 -3 125 -17 17 -15 18 -55 18
-846 0 -759 -1 -832 -17 -849 -12 -14 -31 -18 -84 -18 l-68 0 -3 385 c-2 298
-6 387 -16 397 -19 19 -1065 24 -1102 5 l-25 -13 -5 -384 -5 -385 -89 -3 -90
-3 -103 103 -103 103 0 747 c0 665 2 748 16 762 13 14 51 16 260 16 l244 0 0
-214z m900 -1181 l0 -335 -447 2 -448 3 -3 333 -2 332 450 0 450 0 0 -335z"/>
<path d="M860 640 c-24 -24 -24 -29 -4 -58 15 -22 17 -22 293 -22 202 0 280 3
289 12 19 19 15 66 -7 78 -12 6 -121 10 -285 10 -253 0 -267 -1 -286 -20z"/>
<path d="M856 384 c-19 -18 -19 -16 -6 -48 l10 -26 283 0 c297 0 307 1 307 45
0 44 -10 45 -301 45 -239 0 -280 -2 -293 -16z"/>
</g>
</svg>
