<svg width="60" height="60" viewBox="0 0 60 52" fill="none" xmlns="http://www.w3.org/2000/svg">
<path d="M16.3605 1.16013C16.2298 1.02903 16.0746 0.925009 15.9037 0.854033C15.7327 0.783057 15.5495 0.746521 15.3644 0.746521C15.1793 0.746521 14.996 0.783057 14.8251 0.854033C14.6542 0.925009 14.4989 1.02903 14.3683 1.16013L6.9058 8.57927L4.24564 5.98708C4.11499 5.85598 3.95975 5.75196 3.78882 5.68099C3.61789 5.61001 3.43463 5.57347 3.24955 5.57347C3.06446 5.57347 2.8812 5.61001 2.71027 5.68099C2.53934 5.75196 2.3841 5.85598 2.25345 5.98708L0.413609 7.82927C0.282509 7.95992 0.178488 8.11516 0.107512 8.28609C0.0365357 8.45702 0 8.64028 0 8.82537C0 9.01045 0.0365357 9.19371 0.107512 9.36464C0.178488 9.53557 0.282509 9.69081 0.413609 9.82146L5.99056 15.3761C6.26893 15.6408 6.63833 15.7883 7.0224 15.7883C7.40647 15.7883 7.77586 15.6408 8.05423 15.3761L9.88119 13.5457L18.3421 5.08591C18.6057 4.82208 18.7547 4.46494 18.7567 4.09198C18.7586 3.71903 18.6135 3.36033 18.3527 3.09372L16.3605 1.16013ZM16.3605 19.8152C16.2298 19.6841 16.0746 19.5801 15.9037 19.5091C15.7327 19.4381 15.5495 19.4016 15.3644 19.4016C15.1793 19.4016 14.996 19.4381 14.8251 19.5091C14.6542 19.5801 14.4989 19.6841 14.3683 19.8152L6.9058 27.2824L4.24564 24.6926C4.11499 24.5615 3.95975 24.4574 3.78882 24.3865C3.61789 24.3155 3.43463 24.2789 3.24955 24.2789C3.06446 24.2789 2.8812 24.3155 2.71027 24.3865C2.53934 24.4574 2.3841 24.5615 2.25345 24.6926L0.413609 26.5312C0.282509 26.6619 0.178488 26.8171 0.107512 26.988C0.0365357 27.159 0 27.3422 0 27.5273C0 27.7124 0.0365357 27.8957 0.107512 28.0666C0.178488 28.2375 0.282509 28.3928 0.413609 28.5234L5.9765 34.0898C6.25468 34.3544 6.62387 34.5019 7.00775 34.5019C7.39163 34.5019 7.76082 34.3544 8.039 34.0898L9.87884 32.2511L18.3398 23.7879C18.6024 23.5259 18.7509 23.1707 18.7528 22.7998C18.7548 22.4289 18.6101 22.0722 18.3503 21.8074L16.3605 19.8152ZM7.49994 40.125C4.39564 40.125 1.8058 42.6445 1.8058 45.75C1.8058 48.8554 4.39798 51.375 7.49994 51.375C8.99178 51.375 10.4225 50.7823 11.4774 49.7274C12.5323 48.6726 13.1249 47.2418 13.1249 45.75C13.1249 44.2581 12.5323 42.8274 11.4774 41.7725C10.4225 40.7176 8.99178 40.125 7.49994 40.125ZM58.1249 42H24.3749C23.8777 42 23.4007 42.1975 23.0491 42.5491C22.6975 42.9008 22.4999 43.3777 22.4999 43.875V47.625C22.4999 48.1223 22.6975 48.5992 23.0491 48.9508C23.4007 49.3024 23.8777 49.5 24.3749 49.5H58.1249C58.6222 49.5 59.0991 49.3024 59.4508 48.9508C59.8024 48.5992 59.9999 48.1223 59.9999 47.625V43.875C59.9999 43.3777 59.8024 42.9008 59.4508 42.5491C59.0991 42.1975 58.6222 42 58.1249 42ZM58.1249 4.49997H24.3749C23.8777 4.49997 23.4007 4.69752 23.0491 5.04915C22.6975 5.40078 22.4999 5.87769 22.4999 6.37497V10.125C22.4999 10.6223 22.6975 11.0992 23.0491 11.4508C23.4007 11.8024 23.8777 12 24.3749 12H58.1249C58.6222 12 59.0991 11.8024 59.4508 11.4508C59.8024 11.0992 59.9999 10.6223 59.9999 10.125V6.37497C59.9999 5.87769 59.8024 5.40078 59.4508 5.04915C59.0991 4.69752 58.6222 4.49997 58.1249 4.49997ZM58.1249 23.25H24.3749C23.8777 23.25 23.4007 23.4475 23.0491 23.7991C22.6975 24.1508 22.4999 24.6277 22.4999 25.125V28.875C22.4999 29.3723 22.6975 29.8492 23.0491 30.2008C23.4007 30.5524 23.8777 30.75 24.3749 30.75H58.1249C58.6222 30.75 59.0991 30.5524 59.4508 30.2008C59.8024 29.8492 59.9999 29.3723 59.9999 28.875V25.125C59.9999 24.6277 59.8024 24.1508 59.4508 23.7991C59.0991 23.4475 58.6222 23.25 58.1249 23.25Z" fill="#2B2B2B" stroke="#2B2B2B"/>
</svg>
