<svg width="60" height="60" viewBox="0 0 60 60" fill="none" xmlns="http://www.w3.org/2000/svg">
<g clip-path="url(#clip0_24_3053)">
<path d="M16.3605 4.16013C16.2299 4.02903 16.0747 3.92501 15.9037 3.85403C15.7328 3.78306 15.5495 3.74652 15.3645 3.74652C15.1794 3.74652 14.9961 3.78306 14.8252 3.85403C14.6542 3.92501 14.499 4.02903 14.3684 4.16013L6.90586 11.5793L4.2457 8.98708C4.11506 8.85598 3.95982 8.75196 3.78888 8.68099C3.61795 8.61001 3.43469 8.57347 3.24961 8.57347C3.06452 8.57347 2.88126 8.61001 2.71033 8.68099C2.5394 8.75196 2.38416 8.85598 2.25351 8.98708L0.41367 10.8293C0.28257 10.9599 0.178549 11.1152 0.107573 11.2861C0.0365968 11.457 6.10352e-05 11.6403 6.10352e-05 11.8254C6.10352e-05 12.0104 0.0365968 12.1937 0.107573 12.3646C0.178549 12.5356 0.28257 12.6908 0.41367 12.8215L5.99062 18.3761C6.26899 18.6408 6.63839 18.7883 7.02246 18.7883C7.40653 18.7883 7.77592 18.6408 8.0543 18.3761L9.88125 16.5457L18.3422 8.08591C18.6058 7.82208 18.7548 7.46494 18.7567 7.09198C18.7587 6.71903 18.6135 6.36033 18.3527 6.09372L16.3605 4.16013ZM16.3605 22.8152C16.2299 22.6841 16.0747 22.5801 15.9037 22.5091C15.7328 22.4381 15.5495 22.4016 15.3645 22.4016C15.1794 22.4016 14.9961 22.4381 14.8252 22.5091C14.6542 22.5801 14.499 22.6841 14.3684 22.8152L6.90586 30.2824L4.2457 27.6926C4.11506 27.5615 3.95982 27.4574 3.78888 27.3865C3.61795 27.3155 3.43469 27.2789 3.24961 27.2789C3.06452 27.2789 2.88126 27.3155 2.71033 27.3865C2.5394 27.4574 2.38416 27.5615 2.25351 27.6926L0.41367 29.5312C0.28257 29.6619 0.178549 29.8171 0.107573 29.988C0.0365968 30.159 6.10352e-05 30.3422 6.10352e-05 30.5273C6.10352e-05 30.7124 0.0365968 30.8957 0.107573 31.0666C0.178549 31.2375 0.28257 31.3928 0.41367 31.5234L5.97656 37.0898C6.25474 37.3544 6.62393 37.5019 7.00781 37.5019C7.39169 37.5019 7.76088 37.3544 8.03906 37.0898L9.8789 35.2511L18.3398 26.7879C18.6025 26.5259 18.7509 26.1707 18.7529 25.7998C18.7549 25.4289 18.6102 25.0722 18.3504 24.8074L16.3605 22.8152ZM7.5 43.125C4.3957 43.125 1.80586 45.6445 1.80586 48.75C1.80586 51.8554 4.39804 54.375 7.5 54.375C8.99184 54.375 10.4226 53.7823 11.4775 52.7274C12.5324 51.6726 13.125 50.2418 13.125 48.75C13.125 47.2581 12.5324 45.8274 11.4775 44.7725C10.4226 43.7176 8.99184 43.125 7.5 43.125ZM58.125 45H24.375C23.8777 45 23.4008 45.1975 23.0492 45.5491C22.6975 45.9008 22.5 46.3777 22.5 46.875V50.625C22.5 51.1223 22.6975 51.5992 23.0492 51.9508C23.4008 52.3024 23.8777 52.5 24.375 52.5H58.125C58.6223 52.5 59.0992 52.3024 59.4508 51.9508C59.8025 51.5992 60 51.1223 60 50.625V46.875C60 46.3777 59.8025 45.9008 59.4508 45.5491C59.0992 45.1975 58.6223 45 58.125 45ZM58.125 7.49997H24.375C23.8777 7.49997 23.4008 7.69752 23.0492 8.04915C22.6975 8.40078 22.5 8.87769 22.5 9.37497V13.125C22.5 13.6223 22.6975 14.0992 23.0492 14.4508C23.4008 14.8024 23.8777 15 24.375 15H58.125C58.6223 15 59.0992 14.8024 59.4508 14.4508C59.8025 14.0992 60 13.6223 60 13.125V9.37497C60 8.87769 59.8025 8.40078 59.4508 8.04915C59.0992 7.69752 58.6223 7.49997 58.125 7.49997ZM58.125 26.25H24.375C23.8777 26.25 23.4008 26.4475 23.0492 26.7991C22.6975 27.1508 22.5 27.6277 22.5 28.125V31.875C22.5 32.3723 22.6975 32.8492 23.0492 33.2008C23.4008 33.5524 23.8777 33.75 24.375 33.75H58.125C58.6223 33.75 59.0992 33.5524 59.4508 33.2008C59.8025 32.8492 60 32.3723 60 31.875V28.125C60 27.6277 59.8025 27.1508 59.4508 26.7991C59.0992 26.4475 58.6223 26.25 58.125 26.25Z" fill="#4E60A2" stroke="#4E60A2"/>
</g>
<defs>
<clipPath id="clip0_24_3053">
<rect width="60" height="60" fill="white"/>
</clipPath>
</defs>
</svg>
